<svg viewBox="0 0 32 32" xmlns="http://www.w3.org/2000/svg"><path d="M.24 0h32v32h-32z" fill="none"></path><g data-name="Dribbble"><path d="M17.93 16.9a22.248 22.248 0 0 0-.9-2.21 12 12 0 0 1-4.34.81 11.943 11.943 0 0 1-5-1.09A8.326 8.326 0 0 0 7.54 16a8.7 8.7 0 0 0 3.13 6.68 12.019 12.019 0 0 1 7.26-5.78ZM16.45 13.52a24.554 24.554 0 0 0-3.92-5.39 8.729 8.729 0 0 0-4.5 5 10.563 10.563 0 0 0 4.66 1.07 10.671 10.671 0 0 0 3.76-.68ZM11.73 23.44a8.639 8.639 0 0 0 4.51 1.26 8.764 8.764 0 0 0 3.08-.56 23.756 23.756 0 0 0-.99-6 10.786 10.786 0 0 0-6.6 5.3ZM21.71 9.24a8.663 8.663 0 0 0-5.47-1.94 8.428 8.428 0 0 0-2.37.33 26.074 26.074 0 0 1 3.77 5.35 10.61 10.61 0 0 0 4.07-3.74ZM19.61 17.86a25.198 25.198 0 0 1 .98 5.67 8.67 8.67 0 0 0 4.03-5.21 10.545 10.545 0 0 0-3.43-.57 11.752 11.752 0 0 0-1.58.11Z" fill="#ff512a" class="fill-000000"></path><path d="M16.24 2a14 14 0 1 0 14 14 14 14 0 0 0-14-14Zm9.88 15.51a7.914 7.914 0 0 1-.29 1.3 9.975 9.975 0 0 1-5.19 6.17 8.748 8.748 0 0 1-1.31.53 9.967 9.967 0 0 1-8.13-.88 9.19 9.19 0 0 1-1.1-.74A9.985 9.985 0 0 1 6.24 16a10.14 10.14 0 0 1 .25-2.22 9.311 9.311 0 0 1 .39-1.3 9.992 9.992 0 0 1 4.68-5.31 8.89 8.89 0 0 1 1.3-.58 9.977 9.977 0 0 1 9.49 1.5 9.659 9.659 0 0 1 1.02.9A9.979 9.979 0 0 1 26.24 16a9.416 9.416 0 0 1-.12 1.51Z" fill="#ff512a" class="fill-000000"></path><path d="M18.22 14.15a23.9 23.9 0 0 1 1 2.46 11.64 11.64 0 0 1 1.97-.16 11.812 11.812 0 0 1 3.68.58 7.036 7.036 0 0 0 .07-1.03 8.684 8.684 0 0 0-2.26-5.85 12.016 12.016 0 0 1-4.46 4Z" fill="#ff512a" class="fill-000000"></path></g></svg>